<?xml version="1.0" encoding="UTF-8" standalone="no"?>
<svg
   aria-hidden="true"
   focusable="false"
   data-prefix="fab"
   data-icon="uncharted"
   class="svg-inline--fa fa-uncharted"
   role="img"
   viewBox="0 0 448 512"
   version="1.1"
   id="svg934"
   sodipodi:docname="uncharted-brands.svg"
   inkscape:version="1.1.1 (3bf5ae0d25, 2021-09-20)"
   xmlns:inkscape="http://www.inkscape.org/namespaces/inkscape"
   xmlns:sodipodi="http://sodipodi.sourceforge.net/DTD/sodipodi-0.dtd"
   xmlns="http://www.w3.org/2000/svg"
   xmlns:svg="http://www.w3.org/2000/svg">
  <defs
     id="defs938" />
  <sodipodi:namedview
     id="namedview936"
     pagecolor="#ffffff"
     bordercolor="#666666"
     borderopacity="1.0"
     inkscape:pageshadow="2"
     inkscape:pageopacity="0.0"
     inkscape:pagecheckerboard="0"
     showgrid="false"
     inkscape:zoom="0.72229853"
     inkscape:cx="145.36926"
     inkscape:cy="281.04723"
     inkscape:window-width="1366"
     inkscape:window-height="710"
     inkscape:window-x="0"
     inkscape:window-y="31"
     inkscape:window-maximized="1"
     inkscape:current-layer="svg934" />
  <path
     fill="currentColor"
     d="M171.7 232.8A5.381 5.381 0 0 0 176.7 229.5 48.08 48.08 0 0 1 191.6 204.2c1.243-.828 1.657-2.484 1.657-4.141a4.22 4.22 0 0 0 -2.071-3.312L74.43 128.5 148.1 85a9.941 9.941 0 0 0 4.968-8.281 9.108 9.108 0 0 0 -4.968-8.281L126.6 55.6a9.748 9.748 0 0 0 -9.523 0l-100.2 57.97a9.943 9.943 0 0 0 -4.969 8.281V236.1a9.109 9.109 0 0 0 4.969 8.281L39.24 258.1a8.829 8.829 0 0 0 4.968 1.242 9.4 9.4 0 0 0 6.625-2.484 10.8 10.8 0 0 0 2.9-7.039V164.5L169.7 232.4A4.5 4.5 0 0 0 171.7 232.8zM323.3 377.7a12.48 12.48 0 0 0 -4.969 1.242l-74.53 43.06V287.9c0-2.9-2.9-5.8-6.211-4.555a53.04 53.04 0 0 1 -28.98 .414 4.86 4.86 0 0 0 -6.21 4.555V421.6l-74.53-43.06a8.83 8.83 0 0 0 -4.969-1.242 9.631 9.631 0 0 0 -9.523 9.523v26.08a9.107 9.107 0 0 0 4.969 8.281l100.2 57.55A8.829 8.829 0 0 0 223.5 480a11.03 11.03 0 0 0 4.969-1.242l100.2-57.55a9.941 9.941 0 0 0 4.968-8.281V386.8C332.8 382.3 328.2 377.7 323.3 377.7zM286 78a23 23 0 1 0 -23-23A23 23 0 0 0 286 78zm63.63-10.09a23 23 0 1 0 23 23A23 23 0 0 0 349.6 67.91zM412.8 151.6a23 23 0 1 0 -23-23A23 23 0 0 0 412.8 151.6zm-63.18-9.2a23 23 0 1 0 23 23A23 23 0 0 0 349.6 142.4zm-63.63 83.24a23 23 0 1 0 -23-23A23 23 0 0 0 286 225.6zm-62.07 36.36a23 23 0 1 0 -23-23A23 23 0 0 0 223.9 262zm188.9-82.36a23 23 0 1 0 23 23A23 23 0 0 0 412.8 179.6zm0 72.27a23 23 0 1 0 23 23A23 23 0 0 0 412.8 251.9z"
     id="path932"
     style="fill:#414141;fill-opacity:1" />
</svg>
